<svg xmlns="http://www.w3.org/2000/svg" width="1200" height="360" viewBox="0 0 1200 360">
  <rect width="1200" height="360" fill="#000000"/>
  <g transform="translate(369.4,92.0)"><defs><filter id="glowB" x="-60%" y="-60%" width="220%" height="220%" color-interpolation-filters="sRGB">
    <feGaussianBlur in="SourceAlpha" stdDeviation="5.3" result="b1"/>
    <feFlood flood-color="#c9ccff" flood-opacity="0.42" result="c1"/>
    <feComposite in="c1" in2="b1" operator="in" result="g1"/>
    <feGaussianBlur in="SourceAlpha" stdDeviation="1.6" result="b2"/>
    <feFlood flood-color="#ffffff" flood-opacity="0.62" result="c2"/>
    <feComposite in="c2" in2="b2" operator="in" result="g2"/>
    <feMerge><feMergeNode in="g1"/><feMergeNode in="g2"/><feMergeNode in="SourceGraphic"/></feMerge>
  </filter></defs><g filter="url(#glowB)"><polygon points="54.81,116.74 67.26,138.30 42.37,138.30 29.92,116.74" fill="#CED0DA" stroke="#1B1B22" stroke-width="0.67" stroke-linejoin="round"/><polygon points="54.81,116.74 100.45,37.70 75.55,37.70 29.92,116.74" fill="#9598A6" stroke="#1B1B22" stroke-width="0.67" stroke-linejoin="round"/><polygon points="54.81,116.74 100.45,37.70 112.89,59.26 67.26,138.30" fill="#FFFFFF" stroke="#1B1B22" stroke-width="0.67" stroke-linejoin="round"/><polygon points="67.26,138.30 112.89,59.26 88.00,59.26 42.37,138.30" fill="#9598A6" stroke="#1B1B22" stroke-width="0.67" stroke-linejoin="round"/><polygon points="29.92,116.74 75.55,37.70 88.00,59.26 42.37,138.30" fill="#FFFFFF" stroke="#1B1B22" stroke-width="0.67" stroke-linejoin="round"/><polygon points="88.00,59.26 100.45,37.70 75.55,37.70 63.11,59.26" fill="#9598A6" stroke="#1B1B22" stroke-width="0.67" stroke-linejoin="round"/><polygon points="100.45,37.70 112.89,59.26 88.00,59.26 75.55,37.70" fill="#CED0DA" stroke="#1B1B22" stroke-width="0.67" stroke-linejoin="round"/><polygon points="88.00,59.26 133.63,138.30 108.74,138.30 63.11,59.26" fill="#CED0DA" stroke="#1B1B22" stroke-width="0.67" stroke-linejoin="round"/><polygon points="88.00,59.26 100.45,37.70 146.08,116.74 133.63,138.30" fill="#FFFFFF" stroke="#1B1B22" stroke-width="0.67" stroke-linejoin="round"/><polygon points="100.45,37.70 146.08,116.74 121.19,116.74 75.55,37.70" fill="#CED0DA" stroke="#1B1B22" stroke-width="0.67" stroke-linejoin="round"/><polygon points="63.11,59.26 75.55,37.70 121.19,116.74 108.74,138.30" fill="#FFFFFF" stroke="#1B1B22" stroke-width="0.67" stroke-linejoin="round"/><polygon points="121.19,116.74 133.63,95.19 146.08,116.74 133.63,138.30" fill="#FFFFFF" stroke="#1B1B22" stroke-width="0.67" stroke-linejoin="round"/><polygon points="133.63,138.30 146.08,116.74 121.19,116.74 108.74,138.30" fill="#9598A6" stroke="#1B1B22" stroke-width="0.67" stroke-linejoin="round"/><polygon points="121.19,116.74 133.63,138.30 42.37,138.30 29.92,116.74" fill="#CED0DA" stroke="#1B1B22" stroke-width="0.67" stroke-linejoin="round"/><polygon points="121.19,116.74 133.63,95.19 42.37,95.19 29.92,116.74" fill="#9598A6" stroke="#1B1B22" stroke-width="0.67" stroke-linejoin="round"/><polygon points="133.63,95.19 146.08,116.74 54.81,116.74 42.37,95.19" fill="#CED0DA" stroke="#1B1B22" stroke-width="0.67" stroke-linejoin="round"/><polygon points="133.63,138.30 146.08,116.74 54.81,116.74 42.37,138.30" fill="#9598A6" stroke="#1B1B22" stroke-width="0.67" stroke-linejoin="round"/><polygon points="29.92,116.74 42.37,95.19 54.81,116.74 42.37,138.30" fill="#FFFFFF" stroke="#1B1B22" stroke-width="0.67" stroke-linejoin="round"/></g></g>
  <text x="589.4" y="198.3" font-family="Inter,'Avenir Next','Helvetica Neue',Arial,sans-serif" font-weight="600" font-size="104" letter-spacing="-3.12" fill="#FFFFFF">lazyit</text>
  <text x="589.4" y="230.6" font-family="Inter,'Avenir Next','Helvetica Neue',Arial,sans-serif" font-weight="500" font-size="19" letter-spacing="0.38" fill="#7C7C88">asset-centric IT operations</text>
</svg>