<svg xmlns="http://www.w3.org/2000/svg" width="1280" height="640" viewBox="0 0 1280 640">
  <rect width="1280" height="640" fill="#000000"/>
  <g transform="translate(265.1,170.0)"><defs><filter id="glowB" x="-60%" y="-60%" width="220%" height="220%" color-interpolation-filters="sRGB">
    <feGaussianBlur in="SourceAlpha" stdDeviation="9.0" result="b1"/>
    <feFlood flood-color="#c9ccff" flood-opacity="0.42" result="c1"/>
    <feComposite in="c1" in2="b1" operator="in" result="g1"/>
    <feGaussianBlur in="SourceAlpha" stdDeviation="2.7" result="b2"/>
    <feFlood flood-color="#ffffff" flood-opacity="0.62" result="c2"/>
    <feComposite in="c2" in2="b2" operator="in" result="g2"/>
    <feMerge><feMergeNode in="g1"/><feMergeNode in="g2"/><feMergeNode in="SourceGraphic"/></feMerge>
  </filter></defs><g filter="url(#glowB)"><polygon points="93.43,198.99 114.64,235.74 72.21,235.74 51.00,198.99" fill="#CED0DA" stroke="#1B1B22" stroke-width="1.14" stroke-linejoin="round"/><polygon points="93.43,198.99 171.21,64.26 128.79,64.26 51.00,198.99" fill="#9598A6" stroke="#1B1B22" stroke-width="1.14" stroke-linejoin="round"/><polygon points="93.43,198.99 171.21,64.26 192.43,101.01 114.64,235.74" fill="#FFFFFF" stroke="#1B1B22" stroke-width="1.14" stroke-linejoin="round"/><polygon points="114.64,235.74 192.43,101.01 150.00,101.01 72.21,235.74" fill="#9598A6" stroke="#1B1B22" stroke-width="1.14" stroke-linejoin="round"/><polygon points="51.00,198.99 128.79,64.26 150.00,101.01 72.21,235.74" fill="#FFFFFF" stroke="#1B1B22" stroke-width="1.14" stroke-linejoin="round"/><polygon points="150.00,101.01 171.21,64.26 128.79,64.26 107.57,101.01" fill="#9598A6" stroke="#1B1B22" stroke-width="1.14" stroke-linejoin="round"/><polygon points="171.21,64.26 192.43,101.01 150.00,101.01 128.79,64.26" fill="#CED0DA" stroke="#1B1B22" stroke-width="1.14" stroke-linejoin="round"/><polygon points="150.00,101.01 227.79,235.74 185.36,235.74 107.57,101.01" fill="#CED0DA" stroke="#1B1B22" stroke-width="1.14" stroke-linejoin="round"/><polygon points="150.00,101.01 171.21,64.26 249.00,198.99 227.79,235.74" fill="#FFFFFF" stroke="#1B1B22" stroke-width="1.14" stroke-linejoin="round"/><polygon points="171.21,64.26 249.00,198.99 206.57,198.99 128.79,64.26" fill="#CED0DA" stroke="#1B1B22" stroke-width="1.14" stroke-linejoin="round"/><polygon points="107.57,101.01 128.79,64.26 206.57,198.99 185.36,235.74" fill="#FFFFFF" stroke="#1B1B22" stroke-width="1.14" stroke-linejoin="round"/><polygon points="206.57,198.99 227.79,162.25 249.00,198.99 227.79,235.74" fill="#FFFFFF" stroke="#1B1B22" stroke-width="1.14" stroke-linejoin="round"/><polygon points="227.79,235.74 249.00,198.99 206.57,198.99 185.36,235.74" fill="#9598A6" stroke="#1B1B22" stroke-width="1.14" stroke-linejoin="round"/><polygon points="206.57,198.99 227.79,235.74 72.21,235.74 51.00,198.99" fill="#CED0DA" stroke="#1B1B22" stroke-width="1.14" stroke-linejoin="round"/><polygon points="206.57,198.99 227.79,162.25 72.21,162.25 51.00,198.99" fill="#9598A6" stroke="#1B1B22" stroke-width="1.14" stroke-linejoin="round"/><polygon points="227.79,162.25 249.00,198.99 93.43,198.99 72.21,162.25" fill="#CED0DA" stroke="#1B1B22" stroke-width="1.14" stroke-linejoin="round"/><polygon points="227.79,235.74 249.00,198.99 93.43,198.99 72.21,235.74" fill="#9598A6" stroke="#1B1B22" stroke-width="1.14" stroke-linejoin="round"/><polygon points="51.00,198.99 72.21,162.25 93.43,198.99 72.21,235.74" fill="#FFFFFF" stroke="#1B1B22" stroke-width="1.14" stroke-linejoin="round"/></g></g>
  <text x="625.1" y="354.6" font-family="Inter,'Avenir Next','Helvetica Neue',Arial,sans-serif" font-weight="600" font-size="168" letter-spacing="-5.04" fill="#FFFFFF">lazyit</text>
  <text x="625.1" y="397.1" font-family="Inter,'Avenir Next','Helvetica Neue',Arial,sans-serif" font-weight="500" font-size="25" letter-spacing="0.50" fill="#7C7C88">asset-centric IT operations</text>
</svg>