<svg xmlns="http://www.w3.org/2000/svg" width="512" height="512" viewBox="0 0 512 512"><defs><filter id="glow" x="-60%" y="-60%" width="220%" height="220%" color-interpolation-filters="sRGB">
    <feGaussianBlur in="SourceAlpha" stdDeviation="15.4" result="b1"/>
    <feFlood flood-color="#c9ccff" flood-opacity="0.42" result="c1"/>
    <feComposite in="c1" in2="b1" operator="in" result="g1"/>
    <feGaussianBlur in="SourceAlpha" stdDeviation="4.6" result="b2"/>
    <feFlood flood-color="#ffffff" flood-opacity="0.62" result="c2"/>
    <feComposite in="c2" in2="b2" operator="in" result="g2"/>
    <feMerge><feMergeNode in="g1"/><feMergeNode in="g2"/><feMergeNode in="SourceGraphic"/></feMerge>
  </filter></defs><g filter="url(#glow)"><polygon points="159.45,339.61 195.66,402.32 123.25,402.32 87.04,339.61" fill="#CED0DA" stroke="#1B1B22" stroke-width="1.95" stroke-linejoin="round"/><polygon points="159.45,339.61 292.21,109.68 219.79,109.68 87.04,339.61" fill="#9598A6" stroke="#1B1B22" stroke-width="1.95" stroke-linejoin="round"/><polygon points="159.45,339.61 292.21,109.68 328.41,172.39 195.66,402.32" fill="#FFFFFF" stroke="#1B1B22" stroke-width="1.95" stroke-linejoin="round"/><polygon points="195.66,402.32 328.41,172.39 256.00,172.39 123.25,402.32" fill="#9598A6" stroke="#1B1B22" stroke-width="1.95" stroke-linejoin="round"/><polygon points="87.04,339.61 219.79,109.68 256.00,172.39 123.25,402.32" fill="#FFFFFF" stroke="#1B1B22" stroke-width="1.95" stroke-linejoin="round"/><polygon points="256.00,172.39 292.21,109.68 219.79,109.68 183.59,172.39" fill="#9598A6" stroke="#1B1B22" stroke-width="1.95" stroke-linejoin="round"/><polygon points="292.21,109.68 328.41,172.39 256.00,172.39 219.79,109.68" fill="#CED0DA" stroke="#1B1B22" stroke-width="1.95" stroke-linejoin="round"/><polygon points="256.00,172.39 388.75,402.32 316.34,402.32 183.59,172.39" fill="#CED0DA" stroke="#1B1B22" stroke-width="1.95" stroke-linejoin="round"/><polygon points="256.00,172.39 292.21,109.68 424.96,339.61 388.75,402.32" fill="#FFFFFF" stroke="#1B1B22" stroke-width="1.95" stroke-linejoin="round"/><polygon points="292.21,109.68 424.96,339.61 352.55,339.61 219.79,109.68" fill="#CED0DA" stroke="#1B1B22" stroke-width="1.95" stroke-linejoin="round"/><polygon points="183.59,172.39 219.79,109.68 352.55,339.61 316.34,402.32" fill="#FFFFFF" stroke="#1B1B22" stroke-width="1.95" stroke-linejoin="round"/><polygon points="352.55,339.61 388.75,276.90 424.96,339.61 388.75,402.32" fill="#FFFFFF" stroke="#1B1B22" stroke-width="1.95" stroke-linejoin="round"/><polygon points="388.75,402.32 424.96,339.61 352.55,339.61 316.34,402.32" fill="#9598A6" stroke="#1B1B22" stroke-width="1.95" stroke-linejoin="round"/><polygon points="352.55,339.61 388.75,402.32 123.25,402.32 87.04,339.61" fill="#CED0DA" stroke="#1B1B22" stroke-width="1.95" stroke-linejoin="round"/><polygon points="352.55,339.61 388.75,276.90 123.25,276.90 87.04,339.61" fill="#9598A6" stroke="#1B1B22" stroke-width="1.95" stroke-linejoin="round"/><polygon points="388.75,276.90 424.96,339.61 159.45,339.61 123.25,276.90" fill="#CED0DA" stroke="#1B1B22" stroke-width="1.95" stroke-linejoin="round"/><polygon points="388.75,402.32 424.96,339.61 159.45,339.61 123.25,402.32" fill="#9598A6" stroke="#1B1B22" stroke-width="1.95" stroke-linejoin="round"/><polygon points="87.04,339.61 123.25,276.90 159.45,339.61 123.25,402.32" fill="#FFFFFF" stroke="#1B1B22" stroke-width="1.95" stroke-linejoin="round"/></g></svg>